<svg width="562" height="601" viewBox="0 0 562 601" fill="none" xmlns="http://www.w3.org/2000/svg">
<path d="M8 203.187V549C8 564.289 8 571.934 10.9755 577.774C13.5929 582.911 17.7692 587.087 22.9061 589.704C28.7458 592.68 36.3906 592.68 51.68 592.68H131.876C147.165 592.68 154.81 592.68 160.65 589.704C165.786 587.087 169.963 582.911 172.58 577.774C175.556 571.934 175.556 564.289 175.556 549V284.068C175.556 275.299 175.556 270.914 176.788 266.953C177.879 263.447 179.665 260.197 182.042 257.397C184.726 254.235 188.428 251.885 195.832 247.187L256.532 208.67C264.885 203.37 269.061 200.72 273.553 199.665C277.525 198.733 281.655 198.702 285.64 199.576C290.147 200.564 294.362 203.153 302.792 208.33L366.2 247.267C373.797 251.932 377.596 254.265 380.353 257.447C382.793 260.263 384.631 263.548 385.754 267.101C387.022 271.116 387.022 275.573 387.022 284.489V341.441C387.022 356.731 387.022 364.375 384.047 370.215C381.429 375.352 377.253 379.528 372.116 382.146C366.276 385.121 358.632 385.121 343.342 385.121H303.306C294.441 385.121 290.009 385.121 287.534 386.974C285.378 388.588 284.029 391.059 283.838 393.746C283.618 396.829 286.015 400.557 290.81 408.014L396.659 572.625C401.37 579.951 403.726 583.614 406.88 586.268C409.673 588.618 412.908 590.384 416.395 591.462C420.335 592.68 424.69 592.68 433.399 592.68H510.32C525.609 592.68 533.254 592.68 539.094 589.704C544.231 587.087 548.407 582.911 551.024 577.774C554 571.934 554 564.289 554 549V202.723C554 194.111 554 189.805 552.806 185.901C551.749 182.446 550.017 179.235 547.709 176.454C545.103 173.313 541.504 170.948 534.307 166.219L309.472 18.4815C300.94 12.8755 296.674 10.0725 292.067 8.95729C287.993 7.97146 283.748 7.93666 279.659 8.85558C275.033 9.89509 270.722 12.6278 262.1 18.0931L262.1 18.0932L28.2949 166.295C20.8841 170.992 17.1787 173.341 14.4919 176.504C12.1138 179.304 10.3253 182.556 9.2335 186.063C8 190.026 8 194.413 8 203.187Z" stroke="black" stroke-width="15"/>
</svg>
